<?xml version="1.0" encoding="UTF-8"?>
<svg width="12px" height="13px" viewBox="0 0 12 13" version="1.1" xmlns="http://www.w3.org/2000/svg" xmlns:xlink="http://www.w3.org/1999/xlink">
    <!-- Generator: Sketch 48.2 (47327) - http://www.bohemiancoding.com/sketch -->
    <title>calendar</title>
    <desc>Created with Sketch.</desc>
    <defs></defs>
    <g id="Desktop" stroke="none" stroke-width="1" fill="none" fill-rule="evenodd" transform="translate(-223.000000, -183.000000)">
        <g fill="#000000" fill-rule="nonzero" id="movie-list">
            <g transform="translate(54.000000, 132.000000)">
                <g id="movie">
                    <g id="year" transform="translate(169.000000, 48.000000)">
                        <path d="M3.96428571,10.3125 L2.89285714,10.3125 C2.71607143,10.3125 2.57142857,10.1753906 2.57142857,10.0078125 L2.57142857,8.9921875 C2.57142857,8.82460937 2.71607143,8.6875 2.89285714,8.6875 L3.96428571,8.6875 C4.14107143,8.6875 4.28571429,8.82460937 4.28571429,8.9921875 L4.28571429,10.0078125 C4.28571429,10.1753906 4.14107143,10.3125 3.96428571,10.3125 Z M6.85714286,10.0078125 L6.85714286,8.9921875 C6.85714286,8.82460937 6.7125,8.6875 6.53571429,8.6875 L5.46428571,8.6875 C5.2875,8.6875 5.14285714,8.82460937 5.14285714,8.9921875 L5.14285714,10.0078125 C5.14285714,10.1753906 5.2875,10.3125 5.46428571,10.3125 L6.53571429,10.3125 C6.7125,10.3125 6.85714286,10.1753906 6.85714286,10.0078125 Z M9.42857143,10.0078125 L9.42857143,8.9921875 C9.42857143,8.82460937 9.28392857,8.6875 9.10714286,8.6875 L8.03571429,8.6875 C7.85892857,8.6875 7.71428571,8.82460937 7.71428571,8.9921875 L7.71428571,10.0078125 C7.71428571,10.1753906 7.85892857,10.3125 8.03571429,10.3125 L9.10714286,10.3125 C9.28392857,10.3125 9.42857143,10.1753906 9.42857143,10.0078125 Z M6.85714286,12.4453125 L6.85714286,11.4296875 C6.85714286,11.2621094 6.7125,11.125 6.53571429,11.125 L5.46428571,11.125 C5.2875,11.125 5.14285714,11.2621094 5.14285714,11.4296875 L5.14285714,12.4453125 C5.14285714,12.6128906 5.2875,12.75 5.46428571,12.75 L6.53571429,12.75 C6.7125,12.75 6.85714286,12.6128906 6.85714286,12.4453125 Z M4.28571429,12.4453125 L4.28571429,11.4296875 C4.28571429,11.2621094 4.14107143,11.125 3.96428571,11.125 L2.89285714,11.125 C2.71607143,11.125 2.57142857,11.2621094 2.57142857,11.4296875 L2.57142857,12.4453125 C2.57142857,12.6128906 2.71607143,12.75 2.89285714,12.75 L3.96428571,12.75 C4.14107143,12.75 4.28571429,12.6128906 4.28571429,12.4453125 Z M9.42857143,12.4453125 L9.42857143,11.4296875 C9.42857143,11.2621094 9.28392857,11.125 9.10714286,11.125 L8.03571429,11.125 C7.85892857,11.125 7.71428571,11.2621094 7.71428571,11.4296875 L7.71428571,12.4453125 C7.71428571,12.6128906 7.85892857,12.75 8.03571429,12.75 L9.10714286,12.75 C9.28392857,12.75 9.42857143,12.6128906 9.42857143,12.4453125 Z M12,5.84375 L12,14.78125 C12,15.4541016 11.4241071,16 10.7142857,16 L1.28571429,16 C0.575892857,16 0,15.4541016 0,14.78125 L0,5.84375 C0,5.17089844 0.575892857,4.625 1.28571429,4.625 L2.57142857,4.625 L2.57142857,3.3046875 C2.57142857,3.13710938 2.71607143,3 2.89285714,3 L3.96428571,3 C4.14107143,3 4.28571429,3.13710938 4.28571429,3.3046875 L4.28571429,4.625 L7.71428571,4.625 L7.71428571,3.3046875 C7.71428571,3.13710938 7.85892857,3 8.03571429,3 L9.10714286,3 C9.28392857,3 9.42857143,3.13710938 9.42857143,3.3046875 L9.42857143,4.625 L10.7142857,4.625 C11.4241071,4.625 12,5.17089844 12,5.84375 Z M10.7142857,14.6289063 L10.7142857,7.0625 L1.28571429,7.0625 L1.28571429,14.6289063 C1.28571429,14.7126953 1.35803571,14.78125 1.44642857,14.78125 L10.5535714,14.78125 C10.6419643,14.78125 10.7142857,14.7126953 10.7142857,14.6289063 Z" id="calendar"></path>
                    </g>
                </g>
            </g>
        </g>
    </g>
</svg>